<svg width="100%" height="100%" viewBox="0 0 64 64" fill="none" xmlns="http://www.w3.org/2000/svg">
<path fill-rule="evenodd" clip-rule="evenodd" d="M20.0543 11.0559C22.1128 10.8916 24.0669 10.082 25.6383 8.74234C27.4133 7.23063 29.6685 6.40039 31.9999 6.40039C34.3314 6.40039 36.5866 7.23063 38.3615 8.74234C39.933 10.082 41.8871 10.8916 43.9455 11.0559C46.2701 11.2417 48.4525 12.2494 50.1015 13.8984C51.7505 15.5474 52.7582 17.7298 52.9439 20.0543C53.1071 22.1119 53.9167 24.0671 55.2575 25.6383C56.7692 27.4133 57.5995 29.6685 57.5995 31.9999C57.5995 34.3314 56.7692 36.5866 55.2575 38.3615C53.9179 39.933 53.1083 41.8871 52.9439 43.9455C52.7582 46.2701 51.7505 48.4525 50.1015 50.1015C48.4525 51.7505 46.2701 52.7582 43.9455 52.9439C41.8871 53.1083 39.933 53.9179 38.3615 55.2575C36.5866 56.7692 34.3314 57.5995 31.9999 57.5995C29.6685 57.5995 27.4133 56.7692 25.6383 55.2575C24.0669 53.9179 22.1128 53.1083 20.0543 52.9439C17.7298 52.7582 15.5474 51.7505 13.8984 50.1015C12.2494 48.4525 11.2417 46.2701 11.0559 43.9455C10.8916 41.8871 10.082 39.933 8.74234 38.3615C7.23063 36.5866 6.40039 34.3314 6.40039 31.9999C6.40039 29.6685 7.23063 27.4133 8.74234 25.6383C10.082 24.0669 10.8916 22.1128 11.0559 20.0543C11.2417 17.7298 12.2494 15.5474 13.8984 13.8984C15.5474 12.2494 17.7298 11.2417 20.0543 11.0559V11.0559ZM43.8623 27.8623C44.4452 27.2588 44.7678 26.4505 44.7605 25.6115C44.7532 24.7724 44.4167 23.9698 43.8234 23.3765C43.2301 22.7832 42.4275 22.4467 41.5884 22.4394C40.7494 22.4321 39.9411 22.7546 39.3375 23.3375L28.7999 33.8751L24.6623 29.7375C24.0588 29.1546 23.2505 28.8321 22.4115 28.8394C21.5724 28.8467 20.7698 29.1832 20.1765 29.7765C19.5832 30.3698 19.2467 31.1724 19.2394 32.0115C19.2321 32.8505 19.5546 33.6588 20.1375 34.2623L26.5375 40.6623C27.1376 41.2622 27.9514 41.5993 28.7999 41.5993C29.6485 41.5993 30.4623 41.2622 31.0623 40.6623L43.8623 27.8623V27.8623Z" fill="#2D9CDB"/>
</svg>
